<svg width="32" height="32" viewBox="0 0 32 32" fill="none" xmlns="http://www.w3.org/2000/svg">
<g clip-path="url(#clip0_12_2638)">
<path d="M10.4388 19.3337C7.93126 19.495 5.65564 20.45 4.36439 23.8525C4.21751 24.2406 3.86439 24.4763 3.45251 24.4763C2.75814 24.4763 0.611265 22.7469 -0.000610352 22.3294C1.45435e-05 27.4762 2.37064 32 8.00001 32C12.7413 32 16 29.2644 16 24.4881C16 24.2938 15.9594 24.1081 15.9394 23.9175L10.4388 19.3337ZM28.6181 0C27.6706 0 26.7825 0.419375 26.105 1.02813C13.3294 12.4406 12 12.7087 12 16.0681C12 16.9244 12.2031 17.7406 12.5456 18.4869L16.5344 21.8106C16.985 21.9231 17.4494 22 17.9338 22C21.8156 22 24.0656 19.1581 31.1313 5.97125C31.5925 5.07438 32 4.10563 32 3.09688C32 1.29 30.375 0 28.6181 0Z" fill="#14B8A6"/>
</g>
<defs>
<clipPath id="clip0_12_2638">
<rect width="32" height="32" fill="white"/>
</clipPath>
</defs>
</svg>
