<svg width="20" height="16" viewBox="0 0 20 16" fill="none" xmlns="http://www.w3.org/2000/svg">
<path d="M19.25 6.39998H15V2.19998C15 1.86848 14.6644 1.59998 14.25 1.59998H9.75C9.33562 1.59998 9 1.86848 9 2.19998V3.99998H7V1.99998C7 1.77898 6.77625 1.59998 6.5 1.59998H6C5.72375 1.59998 5.5 1.77898 5.5 1.99998V3.99998H3.5V1.99998C3.5 1.77898 3.27625 1.59998 3 1.59998H2.5C2.22375 1.59998 2 1.77898 2 1.99998V3.99998H0.75C0.335625 3.99998 0 4.26848 0 4.59998V13.6C0 14.0417 0.447812 14.4 1 14.4H19C19.5522 14.4 20 14.0417 20 13.6V6.99998C20 6.66848 19.6641 6.39998 19.25 6.39998ZM4 11.7C4 11.8657 3.83219 12 3.625 12H2.375C2.16781 12 2 11.8657 2 11.7V10.7C2 10.5342 2.16781 10.4 2.375 10.4H3.625C3.83219 10.4 4 10.5342 4 10.7V11.7ZM4 9.29998C4 9.46573 3.83219 9.59998 3.625 9.59998H2.375C2.16781 9.59998 2 9.46573 2 9.29998V8.29998C2 8.13423 2.16781 7.99998 2.375 7.99998H3.625C3.83219 7.99998 4 8.13423 4 8.29998V9.29998ZM4 6.89998C4 7.06573 3.83219 7.19998 3.625 7.19998H2.375C2.16781 7.19998 2 7.06573 2 6.89998V5.89998C2 5.73423 2.16781 5.59998 2.375 5.59998H3.625C3.83219 5.59998 4 5.73423 4 5.89998V6.89998ZM8 11.7C8 11.8657 7.83219 12 7.625 12H6.375C6.16781 12 6 11.8657 6 11.7V10.7C6 10.5342 6.16781 10.4 6.375 10.4H7.625C7.83219 10.4 8 10.5342 8 10.7V11.7ZM8 9.29998C8 9.46573 7.83219 9.59998 7.625 9.59998H6.375C6.16781 9.59998 6 9.46573 6 9.29998V8.29998C6 8.13423 6.16781 7.99998 6.375 7.99998H7.625C7.83219 7.99998 8 8.13423 8 8.29998V9.29998ZM8 6.89998C8 7.06573 7.83219 7.19998 7.625 7.19998H6.375C6.16781 7.19998 6 7.06573 6 6.89998V5.89998C6 5.73423 6.16781 5.59998 6.375 5.59998H7.625C7.83219 5.59998 8 5.73423 8 5.89998V6.89998ZM13 9.29998C13 9.46573 12.8322 9.59998 12.625 9.59998H11.375C11.1678 9.59998 11 9.46573 11 9.29998V8.29998C11 8.13423 11.1678 7.99998 11.375 7.99998H12.625C12.8322 7.99998 13 8.13423 13 8.29998V9.29998ZM13 6.89998C13 7.06573 12.8322 7.19998 12.625 7.19998H11.375C11.1678 7.19998 11 7.06573 11 6.89998V5.89998C11 5.73423 11.1678 5.59998 11.375 5.59998H12.625C12.8322 5.59998 13 5.73423 13 5.89998V6.89998ZM13 4.49998C13 4.66573 12.8322 4.79998 12.625 4.79998H11.375C11.1678 4.79998 11 4.66573 11 4.49998V3.49998C11 3.33423 11.1678 3.19998 11.375 3.19998H12.625C12.8322 3.19998 13 3.33423 13 3.49998V4.49998ZM18 11.7C18 11.8657 17.8322 12 17.625 12H16.375C16.1678 12 16 11.8657 16 11.7V10.7C16 10.5342 16.1678 10.4 16.375 10.4H17.625C17.8322 10.4 18 10.5342 18 10.7V11.7ZM18 9.29998C18 9.46573 17.8322 9.59998 17.625 9.59998H16.375C16.1678 9.59998 16 9.46573 16 9.29998V8.29998C16 8.13423 16.1678 7.99998 16.375 7.99998H17.625C17.8322 7.99998 18 8.13423 18 8.29998V9.29998Z" fill="#EB2528"/>
</svg>
