<svg width="20" height="16" viewBox="0 0 20 16" fill="none" xmlns="http://www.w3.org/2000/svg">
<g clip-path="url(#clip0_14_3843)">
<path d="M3.60562 5.0225L6.79656 5.952C7.89625 3.9135 9.49062 2.34475 11.1403 1.6095C8.14406 1.48725 5.24094 2.5335 3.37375 4.4045C3.16469 4.6145 3.29062 4.93075 3.60562 5.0225ZM7.73844 6.2265L15.1909 8.39725C16.3084 5.36275 15.7753 2.60575 13.8587 2.04775C13.6275 1.98025 13.3859 1.94775 13.1372 1.94775C11.3241 1.948 9.12875 3.677 7.73844 6.2265ZM16.2962 3.1125C16.4906 3.52 16.6347 3.9775 16.7087 4.49225C16.8881 5.7395 16.6644 7.198 16.1166 8.66675L19.3234 9.60075C19.6388 9.6925 19.9894 9.515 19.9975 9.2465C20.07 6.85425 18.6878 4.56049 16.2962 3.1125ZM17.5 12.7995H10.0331L12.0625 8.3375L10.1831 7.79L7.905 12.7992H0.5C0.22375 12.7992 0 12.9782 0 13.1995V13.9997C0 14.2207 0.22375 14.4 0.5 14.4H17.5C17.7763 14.4 18 14.2207 18 13.9997V13.1995C18 12.9785 17.7763 12.7995 17.5 12.7995Z" fill="#EB2528"/>
</g>
<defs>
<clipPath id="clip0_14_3843">
<rect width="20" height="16" fill="white"/>
</clipPath>
</defs>
</svg>
