<svg width="20" height="21" viewBox="0 0 20 21" fill="none" xmlns="http://www.w3.org/2000/svg">
<path d="M3.125 8.78125V18C3.125 18.1726 3.18602 18.3199 3.30806 18.4419C3.4301 18.564 3.57741 18.625 3.75 18.625H7.5V13.3125C7.5 13.0536 7.59153 12.8326 7.77459 12.6496C7.95765 12.4665 8.17862 12.375 8.4375 12.375H11.5625C11.8214 12.375 12.0424 12.4665 12.2254 12.6496C12.4085 12.8326 12.5 13.0536 12.5 13.3125V18.625H16.25C16.4226 18.625 16.5699 18.564 16.6919 18.4419C16.814 18.3199 16.875 18.1726 16.875 18V8.78125" stroke="#4B5563" stroke-width="1.25" stroke-linecap="round" stroke-linejoin="round"/>
<path d="M18.75 10.5L10.4254 2.53125C10.2301 2.325 9.77344 2.32266 9.57461 2.53125L1.25 10.5M15.625 7.49219V3H13.75V5.69531" stroke="#4B5563" stroke-width="1.25" stroke-linecap="round" stroke-linejoin="round"/>
</svg>
