<svg width="32" height="26" viewBox="0 0 32 26" fill="none" xmlns="http://www.w3.org/2000/svg">
<g clip-path="url(#clip0_12_2618)">
<path d="M31.746 21.268L17.346 3.34801C17.0515 2.98161 16.5445 2.76001 16 2.76001C15.4555 2.76001 14.9485 2.98161 14.654 3.34801L0.25398 21.268C0.0957104 21.465 0.0113337 21.6804 0.000849727 21.9144C-0.00963421 22.1484 0.0552426 22.3681 0.19548 22.5736C0.335782 22.7791 0.531782 22.9415 0.783479 23.0609C1.03518 23.1803 1.30734 23.24 1.59998 23.24H30.4C30.9855 23.24 31.524 22.9844 31.8045 22.5732C31.9447 22.3678 32.0096 22.1481 31.9991 21.9142C31.9886 21.6803 31.9042 21.4649 31.746 21.268ZM16 6.40721L20.2695 11.72H16L12.8 14.28L10.897 12.7576L16 6.40721Z" fill="#F97316"/>
</g>
<defs>
<clipPath id="clip0_12_2618">
<rect width="32" height="25.6" fill="white" transform="translate(0 0.200012)"/>
</clipPath>
</defs>
</svg>
