<svg width="40" height="41" viewBox="0 0 40 41" fill="none" xmlns="http://www.w3.org/2000/svg">
<path d="M23 26.5V27.25C23 28.0784 22.7071 28.7855 22.1213 29.3713C21.5355 29.9571 20.8284 30.25 20 30.25C19.1716 30.25 18.4645 29.9571 17.8787 29.3713C17.2929 28.7855 17 28.0784 17 27.25V26.5M28.0475 24.9733C26.8437 23.5 25.9939 22.75 25.9939 18.6883C25.9939 14.9688 24.0945 13.6436 22.5312 13C22.3236 12.9147 22.1281 12.7188 22.0648 12.5055C21.7906 11.5722 21.0219 10.75 20 10.75C18.9781 10.75 18.2089 11.5727 17.9375 12.5064C17.8742 12.722 17.6787 12.9147 17.4711 13C15.9059 13.6445 14.0084 14.965 14.0084 18.6883C14.0061 22.75 13.1562 23.5 11.9525 24.9733C11.4537 25.5836 11.8906 26.5 12.763 26.5H27.2417C28.1094 26.5 28.5434 25.5808 28.0475 24.9733Z" stroke="#4B5563" stroke-width="1.5" stroke-linecap="round" stroke-linejoin="round"/>
</svg>
