<svg width="32" height="26" viewBox="0 0 32 26" fill="none" xmlns="http://www.w3.org/2000/svg">
<g clip-path="url(#clip0_12_2628)">
<path d="M5.769 8.23599L10.8745 9.72319C12.634 6.46159 15.185 3.95159 17.8245 2.77519C13.0305 2.57959 8.3855 4.25359 5.398 7.24719C5.0635 7.58319 5.265 8.08919 5.769 8.23599ZM12.3815 10.1624L24.3055 13.6356C26.0935 8.78039 25.2405 4.36919 22.174 3.47639C21.804 3.36839 21.4175 3.31639 21.0195 3.31639C18.1185 3.31679 14.606 6.08319 12.3815 10.1624ZM26.074 5.17999C26.385 5.83199 26.6155 6.56399 26.734 7.38759C27.021 9.38319 26.663 11.7168 25.7865 14.0668L30.9175 15.5612C31.422 15.708 31.983 15.424 31.996 14.9944C32.112 11.1668 29.9005 7.49679 26.074 5.17999ZM28 20.6792H16.053L19.3 13.54L16.293 12.664L12.648 20.6788H0.8C0.358 20.6788 0 20.9652 0 21.3192V22.5996C0 22.9532 0.358 23.24 0.8 23.24H28C28.442 23.24 28.8 22.9532 28.8 22.5996V21.3192C28.8 20.9656 28.442 20.6792 28 20.6792Z" fill="#93C5FD"/>
</g>
<defs>
<clipPath id="clip0_12_2628">
<rect width="32" height="25.6" fill="white" transform="translate(0 0.200012)"/>
</clipPath>
</defs>
</svg>
