<svg width="21" height="21" viewBox="0 0 21 21" fill="none" xmlns="http://www.w3.org/2000/svg">
<path d="M12.8594 5.5V18.625M7.23438 2.375V15.5M12.284 5.36875L7.80977 2.50625C7.62922 2.41606 7.43804 2.37217 7.23624 2.37459C7.03443 2.377 6.84436 2.42544 6.66602 2.51992L2.2543 5.48008C2.15203 5.53426 2.07105 5.61092 2.01138 5.71008C1.9517 5.80924 1.92186 5.91669 1.92188 6.03242V17.5871C1.92185 17.8227 2.02274 18.0012 2.22454 18.1226C2.42634 18.2441 2.63131 18.2497 2.83945 18.1395L6.66055 15.6477C6.84039 15.5524 7.03206 15.5039 7.23557 15.5023C7.43909 15.5006 7.63153 15.5459 7.81289 15.6383L12.1824 18.4898C12.3622 18.5814 12.5529 18.6268 12.7546 18.6261C12.9563 18.6253 13.1467 18.5785 13.3258 18.4855L17.8348 15.5191C17.9383 15.4654 18.0204 15.3887 18.081 15.289C18.1416 15.1893 18.1719 15.0811 18.1719 14.9645V3.41289C18.1719 3.17735 18.071 2.99884 17.8692 2.87737C17.6674 2.75589 17.4624 2.75028 17.2543 2.86055L13.4262 5.35508C13.248 5.44929 13.0582 5.4976 12.8567 5.50001C12.6552 5.50242 12.4643 5.45867 12.284 5.36875Z" stroke="#4B5563" stroke-width="1.25" stroke-linecap="round" stroke-linejoin="round"/>
</svg>
