<svg width="21" height="20" viewBox="0 0 21 20" fill="none" xmlns="http://www.w3.org/2000/svg">
<path d="M2.375 7.5C2.375 6.46447 3.21447 5.625 4.25 5.625H16.75C17.7855 5.625 18.625 6.46447 18.625 7.5V15C18.625 16.0355 17.7855 16.875 16.75 16.875H4.25C3.21447 16.875 2.375 16.0355 2.375 15V7.5Z" stroke="#EB2528" stroke-width="1.25" stroke-linejoin="round"/>
<path d="M16.5687 5.62498V4.45311C16.5686 3.8406 16.3325 3.33914 15.8605 2.94874C15.3885 2.55835 14.8517 2.42048 14.25 2.53514L3.9625 4.291C3.5017 4.37881 3.12183 4.60348 2.82291 4.965C2.52399 5.32652 2.37468 5.74183 2.375 6.21092V8.12498" stroke="#EB2528" stroke-width="1.25" stroke-linejoin="round"/>
<path d="M14.875 12.5C14.5298 12.5 14.2352 12.378 13.9911 12.1339C13.747 11.8898 13.625 11.5952 13.625 11.25C13.625 10.9048 13.747 10.6102 13.9911 10.3661C14.2352 10.122 14.5298 10 14.875 10C15.2202 10 15.5148 10.122 15.7589 10.3661C16.003 10.6102 16.125 10.9048 16.125 11.25C16.125 11.5952 16.003 11.8898 15.7589 12.1339C15.5148 12.378 15.2202 12.5 14.875 12.5Z" fill="#EB2528"/>
</svg>
