<svg width="32" height="26" viewBox="0 0 32 26" fill="none" xmlns="http://www.w3.org/2000/svg">
<path d="M4.8 11.72C6.565 11.72 8 10.572 8 9.15998C8 7.74798 6.565 6.59998 4.8 6.59998C3.035 6.59998 1.6 7.74798 1.6 9.15998C1.6 10.572 3.035 11.72 4.8 11.72ZM27.2 11.72C28.965 11.72 30.4 10.572 30.4 9.15998C30.4 7.74798 28.965 6.59998 27.2 6.59998C25.435 6.59998 24 7.74798 24 9.15998C24 10.572 25.435 11.72 27.2 11.72ZM28.8 13H25.6C24.72 13 23.925 13.284 23.345 13.744C25.36 14.628 26.79 16.224 27.1 18.12H30.4C31.285 18.12 32 17.548 32 16.84V15.56C32 14.148 30.565 13 28.8 13ZM16 13C19.095 13 21.6 10.996 21.6 8.51998C21.6 6.04398 19.095 4.03998 16 4.03998C12.905 4.03998 10.4 6.04398 10.4 8.51998C10.4 10.996 12.905 13 16 13ZM19.84 14.28H19.425C18.385 14.68 17.23 14.92 16 14.92C14.77 14.92 13.62 14.68 12.575 14.28H12.16C8.98 14.28 6.4 16.344 6.4 18.888V20.04C6.4 21.1 7.475 21.96 8.8 21.96H23.2C24.525 21.96 25.6 21.1 25.6 20.04V18.888C25.6 16.344 23.02 14.28 19.84 14.28ZM8.655 13.744C8.075 13.284 7.28 13 6.4 13H3.2C1.435 13 0 14.148 0 15.56V16.84C0 17.548 0.715 18.12 1.6 18.12H4.895C5.21 16.224 6.64 14.628 8.655 13.744Z" fill="#A855F7"/>
</svg>
